<svg xmlns="http://www.w3.org/2000/svg" viewBox="-150 -150 300 300" width="512" height="512">
  
  <title>ARGUS</title>
  <g id="argus-eye" fill="none" stroke-linejoin="round" stroke-linecap="round">
    <path id="lens" d="M -134 0 Q 0 -116 134 0 Q 0 116 -134 0 Z" stroke="#001F3F" stroke-width="2.4" opacity="0.9"></path>
    <circle id="iris-guide" cx="0" cy="0" r="62" stroke="#001F3F" stroke-width="1" opacity="0.16"></circle>
    <g id="web" stroke="#001F3F" stroke-width="0.9" opacity="0.28">
      <line x1="62" y1="0" x2="31" y2="53.69"></line>
      <line x1="31" y1="53.69" x2="-31" y2="53.69"></line>
      <line x1="-31" y1="53.69" x2="-62" y2="0"></line>
      <line x1="-62" y1="0" x2="-31" y2="-53.69"></line>
      <line x1="-31" y1="-53.69" x2="31" y2="-53.69"></line>
      <line x1="31" y1="-53.69" x2="62" y2="0"></line>
    </g>
    <g id="signal-lines" stroke="#001F3F" stroke-width="1.3" opacity="0.55">
      <line x1="62" y1="0" x2="0" y2="0"></line>
      <line x1="53.69" y1="31" x2="0" y2="0"></line>
      <line x1="31" y1="53.69" x2="0" y2="0"></line>
      <line x1="0" y1="62" x2="0" y2="0"></line>
      <line x1="-31" y1="53.69" x2="0" y2="0"></line>
      <line x1="-53.69" y1="31" x2="0" y2="0"></line>
      <line x1="-62" y1="0" x2="0" y2="0"></line>
      <line x1="-53.69" y1="-31" x2="0" y2="0"></line>
      <line x1="-31" y1="-53.69" x2="0" y2="0"></line>
      <line x1="0" y1="-62" x2="0" y2="0"></line>
      <line x1="31" y1="-53.69" x2="0" y2="0"></line>
      <line x1="53.69" y1="-31" x2="0" y2="0"></line>
    </g>
    <g id="iris-nodes" fill="#001F3F">
      <circle cx="62" cy="0" r="3.4"></circle>
      <circle cx="53.69" cy="31" r="3"></circle>
      <circle cx="31" cy="53.69" r="3.4"></circle>
      <circle cx="0" cy="62" r="3"></circle>
      <circle cx="-31" cy="53.69" r="3.4"></circle>
      <circle cx="-53.69" cy="31" r="3"></circle>
      <circle cx="-62" cy="0" r="3.4"></circle>
      <circle cx="-53.69" cy="-31" r="3"></circle>
      <circle cx="-31" cy="-53.69" r="3.4"></circle>
      <circle cx="0" cy="-62" r="3"></circle>
      <circle cx="31" cy="-53.69" r="3.4"></circle>
      <circle cx="53.69" cy="-31" r="3"></circle>
    </g>
    <circle id="focal-halo" cx="0" cy="0" r="18" stroke="#001F3F" stroke-width="1.2" opacity="0.4"></circle>
    <circle id="focal-node" cx="0" cy="0" r="9" fill="#DBE64C"></circle>
  </g>
</svg>