<svg xmlns="http://www.w3.org/2000/svg" viewBox="0 0 560 160" width="1120" height="320">
  <title>ARGUS — Signal Intelligence</title>
  <g id="mark" transform="translate(80 80) scale(0.42)" fill="none" stroke-linejoin="round" stroke-linecap="round">
    <path d="M -132 0 Q 0 -144 132 0 Q 0 144 -132 0 Z" stroke="#64748B" stroke-width="3"></path>
    <circle cx="0" cy="0" r="60" stroke="#475569" stroke-width="5" stroke-dasharray="1.6 14.1"></circle>
    <circle cx="0" cy="0" r="54" stroke="#64748B" stroke-width="1.4"></circle>
    <g stroke="#8C9CB0" stroke-width="1.8">
      <line x1="54" y1="0" x2="10" y2="17.32"></line>
      <line x1="27" y1="46.77" x2="-10" y2="17.32"></line>
      <line x1="-27" y1="46.77" x2="-20" y2="0"></line>
      <line x1="-54" y1="0" x2="-10" y2="-17.32"></line>
      <line x1="-27" y1="-46.77" x2="10" y2="-17.32"></line>
      <line x1="27" y1="-46.77" x2="20" y2="0"></line>
    </g>
    <polygon points="20,0 10,17.32 -10,17.32 -20,0 -10,-17.32 10,-17.32" stroke="#3B82F6" stroke-width="1.5"></polygon>
    <circle cx="0" cy="0" r="6.5" fill="#3B82F6" stroke="none"></circle>
  </g>
  <line x1="150" y1="56" x2="150" y2="104" stroke="#CBD5E1" stroke-width="1"></line>
  <text x="172" y="79" font-family="Inter, 'Helvetica Neue', Arial, sans-serif" font-weight="800" font-size="42" letter-spacing="7.2" fill="#0F172A">ARGUS</text>
  <text x="174" y="106" font-family="Inter, 'Helvetica Neue', Arial, sans-serif" font-weight="600" font-size="11" letter-spacing="3.6" fill="#64748B">SIGNAL INTELLIGENCE</text>
</svg>
